<?xml version="1.0" encoding="UTF-8"?>
<!DOCTYPE svg PUBLIC "-//W3C//DTD SVG 1.1//EN" "http://www.w3.org/Graphics/SVG/1.1/DTD/svg11.dtd">
<svg version="1.2" width="210mm" height="297mm" viewBox="0 0 21000 29700" preserveAspectRatio="xMidYMid" fill-rule="evenodd" stroke-width="28.222" stroke-linejoin="round" xmlns="http://www.w3.org/2000/svg" xmlns:ooo="http://xml.openoffice.org/svg/export" xmlns:xlink="http://www.w3.org/1999/xlink" xmlns:presentation="http://sun.com/xmlns/staroffice/presentation" xmlns:smil="http://www.w3.org/2001/SMIL20/" xmlns:anim="urn:oasis:names:tc:opendocument:xmlns:animation:1.0" xmlns:svg="urn:oasis:names:tc:opendocument:xmlns:svg-compatible:1.0" xml:space="preserve">
 <defs class="ClipPathGroup">
  <clipPath id="presentation_clip_path" clipPathUnits="userSpaceOnUse">
   <rect x="0" y="0" width="21000" height="29700"/>
  </clipPath>
  <clipPath id="presentation_clip_path_shrink" clipPathUnits="userSpaceOnUse">
   <rect x="21" y="29" width="20958" height="29641"/>
  </clipPath>
 </defs>
 <defs class="TextShapeIndex">
  <g ooo:slide="id1" ooo:id-list="id3"/>
 </defs>
 <defs class="EmbeddedBulletChars">
  <g id="bullet-char-template-57356" transform="scale(0.00048828125,-0.00048828125)">
   <path d="M 580,1141 L 1163,571 580,0 -4,571 580,1141 Z"/>
  </g>
  <g id="bullet-char-template-57354" transform="scale(0.00048828125,-0.00048828125)">
   <path d="M 8,1128 L 1137,1128 1137,0 8,0 8,1128 Z"/>
  </g>
  <g id="bullet-char-template-10146" transform="scale(0.00048828125,-0.00048828125)">
   <path d="M 174,0 L 602,739 174,1481 1456,739 174,0 Z M 1358,739 L 309,1346 659,739 1358,739 Z"/>
  </g>
  <g id="bullet-char-template-10132" transform="scale(0.00048828125,-0.00048828125)">
   <path d="M 2015,739 L 1276,0 717,0 1260,543 174,543 174,936 1260,936 717,1481 1274,1481 2015,739 Z"/>
  </g>
  <g id="bullet-char-template-10007" transform="scale(0.00048828125,-0.00048828125)">
   <path d="M 0,-2 C -7,14 -16,27 -25,37 L 356,567 C 262,823 215,952 215,954 215,979 228,992 255,992 264,992 276,990 289,987 310,991 331,999 354,1012 L 381,999 492,748 772,1049 836,1024 860,1049 C 881,1039 901,1025 922,1006 886,937 835,863 770,784 769,783 710,716 594,584 L 774,223 C 774,196 753,168 711,139 L 727,119 C 717,90 699,76 672,76 641,76 570,178 457,381 L 164,-76 C 142,-110 111,-127 72,-127 30,-127 9,-110 8,-76 1,-67 -2,-52 -2,-32 -2,-23 -1,-13 0,-2 Z"/>
  </g>
  <g id="bullet-char-template-10004" transform="scale(0.00048828125,-0.00048828125)">
   <path d="M 285,-33 C 182,-33 111,30 74,156 52,228 41,333 41,471 41,549 55,616 82,672 116,743 169,778 240,778 293,778 328,747 346,684 L 369,508 C 377,444 397,411 428,410 L 1163,1116 C 1174,1127 1196,1133 1229,1133 1271,1133 1292,1118 1292,1087 L 1292,965 C 1292,929 1282,901 1262,881 L 442,47 C 390,-6 338,-33 285,-33 Z"/>
  </g>
  <g id="bullet-char-template-9679" transform="scale(0.00048828125,-0.00048828125)">
   <path d="M 813,0 C 632,0 489,54 383,161 276,268 223,411 223,592 223,773 276,916 383,1023 489,1130 632,1184 813,1184 992,1184 1136,1130 1245,1023 1353,916 1407,772 1407,592 1407,412 1353,268 1245,161 1136,54 992,0 813,0 Z"/>
  </g>
  <g id="bullet-char-template-8226" transform="scale(0.00048828125,-0.00048828125)">
   <path d="M 346,457 C 273,457 209,483 155,535 101,586 74,649 74,723 74,796 101,859 155,911 209,963 273,989 346,989 419,989 480,963 531,910 582,859 608,796 608,723 608,648 583,586 532,535 482,483 420,457 346,457 Z"/>
  </g>
  <g id="bullet-char-template-8211" transform="scale(0.00048828125,-0.00048828125)">
   <path d="M -4,459 L 1135,459 1135,606 -4,606 -4,459 Z"/>
  </g>
  <g id="bullet-char-template-61548" transform="scale(0.00048828125,-0.00048828125)">
   <path d="M 173,740 C 173,903 231,1043 346,1159 462,1274 601,1332 765,1332 928,1332 1067,1274 1183,1159 1299,1043 1357,903 1357,740 1357,577 1299,437 1183,322 1067,206 928,148 765,148 601,148 462,206 346,322 231,437 173,577 173,740 Z"/>
  </g>
 </defs>
 <g>
  <g id="id2" class="Master_Slide">
   <g id="bg-id2" class="Background"/>
   <g id="bo-id2" class="BackgroundObjects"/>
  </g>
 </g>
 <g class="SlideGroup">
  <g>
   <g id="container-id1">
    <g id="id1" class="Slide" clip-path="url(#presentation_clip_path)">
     <g class="Page">
      <g class="Graphic">
       <g id="id3">
        <rect class="BoundingBox" stroke="none" fill="none" x="1000" y="1000" width="19001" height="19001"/>
        <path fill="rgb(0,0,0)" stroke="none" d="M 2188,2188 L 2979,2188 3771,2188 4563,2188 5354,2188 6146,2188 6938,2188 7729,2188 7729,2979 7729,3771 7729,4563 7729,5354 7729,6146 7729,6938 7729,7729 6938,7729 6146,7729 5354,7729 4563,7729 3771,7729 2979,7729 2188,7729 2188,6938 2188,6146 2188,5354 2188,4563 2188,3771 2188,2979 2188,2188 Z M 2979,2979 L 2979,3771 2979,4563 2979,5354 2979,6146 2979,6938 3771,6938 4563,6938 5354,6938 6146,6938 6938,6938 6938,6146 6938,5354 6938,4563 6938,3771 6938,2979 6146,2979 5354,2979 4563,2979 3771,2979 2979,2979 Z M 10104,2188 L 10896,2188 11688,2188 12479,2188 12479,2979 12479,3771 12479,4563 12479,5354 12479,6146 11688,6146 11688,5354 11688,4563 10896,4563 10104,4563 10104,3771 9313,3771 8521,3771 8521,2979 9313,2979 10104,2979 10104,2188 Z M 10896,2979 L 10896,3771 11688,3771 11688,2979 10896,2979 Z M 13271,2188 L 14063,2188 14854,2188 15646,2188 16438,2188 17229,2188 18021,2188 18813,2188 18813,2979 18813,3771 18813,4563 18813,5354 18813,6146 18813,6938 18813,7729 18021,7729 17229,7729 16438,7729 15646,7729 14854,7729 14063,7729 13271,7729 13271,6938 13271,6146 13271,5354 13271,4563 13271,3771 13271,2979 13271,2188 Z M 14063,2979 L 14063,3771 14063,4563 14063,5354 14063,6146 14063,6938 14854,6938 15646,6938 16438,6938 17229,6938 18021,6938 18021,6146 18021,5354 18021,4563 18021,3771 18021,2979 17229,2979 16438,2979 15646,2979 14854,2979 14063,2979 Z M 3771,3771 L 4563,3771 5354,3771 6146,3771 6146,4563 6146,5354 6146,6146 5354,6146 4563,6146 3771,6146 3771,5354 3771,4563 3771,3771 Z M 14854,3771 L 15646,3771 16438,3771 17229,3771 17229,4563 17229,5354 17229,6146 16438,6146 15646,6146 14854,6146 14854,5354 14854,4563 14854,3771 Z M 8521,4563 L 9313,4563 10104,4563 10104,5354 10104,6146 9313,6146 9313,5354 8521,5354 8521,4563 Z M 8521,6146 L 9313,6146 9313,6938 9313,7729 8521,7729 8521,6938 8521,6146 Z M 10896,6146 L 11688,6146 11688,6938 10896,6938 10896,6146 Z M 10104,6938 L 10896,6938 10896,7729 10104,7729 10104,6938 Z M 11688,6938 L 12479,6938 12479,7729 11688,7729 11688,6938 Z M 9313,7729 L 10104,7729 10104,8521 9313,8521 9313,7729 Z M 2188,8521 L 2979,8521 3771,8521 4563,8521 5354,8521 6146,8521 6146,9313 5354,9313 4563,9313 4563,10104 3771,10104 3771,9313 2979,9313 2188,9313 2188,8521 Z M 6938,8521 L 7729,8521 8521,8521 9313,8521 9313,9313 8521,9313 8521,10104 7729,10104 7729,9313 6938,9313 6938,8521 Z M 10896,8521 L 11688,8521 11688,9313 12479,9313 12479,8521 13271,8521 13271,9313 13271,10104 14063,10104 14063,10896 13271,10896 12479,10896 12479,11688 12479,12479 12479,13271 11688,13271 11688,12479 11688,11688 10896,11688 10104,11688 9313,11688 9313,10896 10104,10896 10104,10104 10104,9313 10896,9313 10896,8521 Z M 14063,8521 L 14854,8521 14854,9313 14063,9313 14063,8521 Z M 15646,8521 L 16438,8521 16438,9313 17229,9313 17229,8521 18021,8521 18021,9313 18813,9313 18813,10104 18021,10104 18021,10896 17229,10896 17229,11688 16438,11688 16438,10896 16438,10104 15646,10104 15646,9313 15646,8521 Z M 10896,10104 L 10896,10896 11688,10896 11688,10104 10896,10104 Z M 2979,10104 L 3771,10104 3771,10896 3771,11688 2979,11688 2979,10896 2979,10104 Z M 4563,10104 L 5354,10104 6146,10104 6146,10896 5354,10896 5354,11688 5354,12479 4563,12479 4563,11688 4563,10896 4563,10104 Z M 6938,10104 L 7729,10104 7729,10896 6938,10896 6938,10104 Z M 8521,10104 L 9313,10104 9313,10896 8521,10896 8521,10104 Z M 14063,10896 L 14854,10896 15646,10896 15646,11688 14854,11688 14063,11688 14063,10896 Z M 6146,11688 L 6938,11688 7729,11688 7729,12479 6938,12479 6146,12479 6146,11688 Z M 13271,11688 L 14063,11688 14063,12479 13271,12479 13271,11688 Z M 15646,11688 L 16438,11688 16438,12479 17229,12479 17229,13271 16438,13271 15646,13271 15646,12479 15646,11688 Z M 8521,12479 L 9313,12479 10104,12479 10104,13271 10104,14063 9313,14063 8521,14063 8521,13271 8521,12479 Z M 14063,12479 L 14854,12479 14854,13271 14063,13271 14063,12479 Z M 2188,13271 L 2979,13271 3771,13271 4563,13271 5354,13271 6146,13271 6938,13271 7729,13271 7729,14063 7729,14854 7729,15646 7729,16438 7729,17229 7729,18021 7729,18813 6938,18813 6146,18813 5354,18813 4563,18813 3771,18813 2979,18813 2188,18813 2188,18021 2188,17229 2188,16438 2188,15646 2188,14854 2188,14063 2188,13271 Z M 2979,14063 L 2979,14854 2979,15646 2979,16438 2979,17229 2979,18021 3771,18021 4563,18021 5354,18021 6146,18021 6938,18021 6938,17229 6938,16438 6938,15646 6938,14854 6938,14063 6146,14063 5354,14063 4563,14063 3771,14063 2979,14063 Z M 10896,13271 L 11688,13271 11688,14063 10896,14063 10896,13271 Z M 14854,13271 L 15646,13271 15646,14063 15646,14854 14854,14854 14063,14854 14063,14063 14854,14063 14854,13271 Z M 17229,13271 L 18021,13271 18021,14063 17229,14063 17229,13271 Z M 10104,14063 L 10896,14063 10896,14854 10104,14854 10104,14063 Z M 18021,14063 L 18813,14063 18813,14854 18813,15646 18021,15646 18021,14854 18021,14063 Z M 3771,14854 L 4563,14854 5354,14854 6146,14854 6146,15646 6146,16438 6146,17229 5354,17229 4563,17229 3771,17229 3771,16438 3771,15646 3771,14854 Z M 8521,14854 L 9313,14854 10104,14854 10104,15646 10104,16438 9313,16438 9313,17229 9313,18021 9313,18813 8521,18813 8521,18021 8521,17229 8521,16438 8521,15646 8521,14854 Z M 10896,14854 L 11688,14854 11688,15646 12479,15646 13271,15646 14063,15646 14854,15646 14854,16438 14063,16438 14063,17229 14854,17229 14854,16438 15646,16438 15646,17229 15646,18021 14854,18021 14063,18021 13271,18021 12479,18021 12479,18813 11688,18813 11688,18021 10896,18021 10896,17229 11688,17229 11688,16438 10896,16438 10896,15646 10896,14854 Z M 16438,14854 L 17229,14854 17229,15646 18021,15646 18021,16438 17229,16438 16438,16438 15646,16438 15646,15646 16438,15646 16438,14854 Z M 12479,16438 L 12479,17229 13271,17229 13271,16438 12479,16438 Z M 17229,17229 L 18021,17229 18813,17229 18813,18021 18021,18021 18021,18813 17229,18813 16438,18813 15646,18813 15646,18021 16438,18021 17229,18021 17229,17229 Z M 10104,18021 L 10896,18021 10896,18813 10104,18813 10104,18021 Z"/>
       </g>
      </g>
     </g>
    </g>
   </g>
  </g>
 </g>
</svg>